<svg width="135" height="30" viewBox="0 0 135 30" fill="none" xmlns="http://www.w3.org/2000/svg">
<path d="M18.4526 6.66809C21.6402 6.66809 24.0775 8.41203 24.0775 11.8427V22.1599H19.8677V14.3086C19.8677 11.3603 18.9957 10.038 17.1911 10.038C15.2363 10.038 14.3929 11.3603 14.3929 14.3086V22.1599H10.1831V14.3086C10.1831 11.3603 9.31115 10.038 7.47429 10.038C5.45875 10.038 4.37593 11.3603 4.37593 14.3086V22.1599H0.162598V7.11837H4.37593V7.30063C4.37593 8.62288 3.77556 10.2489 3.38246 11.5104L4.10434 11.7212C4.49386 10.4562 4.64753 8.59429 5.60884 7.69016C6.39147 6.90753 7.35279 6.66809 8.82871 6.66809C10.151 6.66809 11.2659 6.90753 12.0486 7.57223C13.0706 8.4442 12.5918 10.3096 12.3809 11.6033L13.1314 11.7248C13.3422 10.4311 13.6746 8.80514 14.7252 8.02608C15.658 7.3042 16.9195 6.67167 18.4561 6.67167L18.4526 6.66809Z" fill="white"/>
<path d="M35.4203 14.5194C35.9921 15.7845 36.0207 17.5285 36.0207 18.8829H36.7712C36.7712 17.5285 36.7712 15.7845 37.3715 14.5194L40.8308 7.11841H46.0948L38.6044 22.1277C38.1542 23.0605 37.7325 23.8109 37.25 24.7758C35.867 27.6955 34.2732 29.6789 31.8038 29.6789H27.2009V25.4655H29.7275C31.5322 25.4655 32.2826 24.5328 33.126 22.9997L33.998 21.4059L26.6577 7.11841H31.9217L35.4096 14.5194H35.4203Z" fill="white"/>
<path d="M53.2172 8.29411C53.2172 9.19467 52.6741 10.2489 52.3739 11.0923L53.0672 11.3317C53.3673 10.4883 53.5174 9.25542 54.15 8.62289C55.2614 7.47932 56.798 6.6681 58.7814 6.6681C63.0841 6.6681 66.1825 10.399 66.3004 14.6695C66.4505 19.1223 63.2628 22.6423 58.7814 22.6423C56.7659 22.6423 55.2006 21.949 54.1178 20.7769C53.4853 20.1443 53.3959 18.8828 53.0957 18.0395L52.3739 18.2789C52.6741 19.1223 53.2172 20.1729 53.2172 21.0771V22.1599L49.0039 22.1313V0.321289L53.2172 0.349879V8.29054V8.29411ZM62.0906 14.7624C62.0906 12.4753 60.6469 10.5812 58.1203 10.5812C55.5937 10.5812 54.1178 12.4753 54.1178 14.7624C54.1178 17.0496 55.5902 18.7327 58.1203 18.7327C60.6504 18.7327 62.0906 17.0496 62.0906 14.7624Z" fill="#E6E8F0"/>
<path d="M75.4454 22.6423C71.0248 22.6423 67.8657 19.0329 67.8657 14.5515C67.8657 10.0702 71.0248 6.67163 75.4454 6.67163C77.4324 6.67163 78.9655 7.36492 80.0483 8.53708C80.6809 9.1982 80.7702 10.4311 81.0418 11.3031L81.7637 11.0636C81.4921 10.2203 80.9524 9.16961 80.9524 8.26548V7.12191H85.1622V22.1634H80.9524V20.9305C80.9524 20.0264 81.4956 18.9436 81.7351 18.1037L81.0418 17.8643C80.7702 18.7363 80.6809 19.9692 80.0805 20.6625C78.9977 21.8954 77.4646 22.6494 75.449 22.6494L75.4454 22.6423ZM75.7456 18.7327C77.8505 18.7327 79.4444 16.8065 79.4765 14.5515C79.4765 12.2644 78.1829 10.5812 75.7456 10.5812C73.6408 10.5812 72.0755 12.2644 72.0755 14.5515C72.0755 16.8387 73.6408 18.7327 75.7456 18.7327Z" fill="#E6E8F0"/>
<path d="M98.3058 6.66809C101.343 6.66809 103.691 8.41203 103.691 11.8427V22.1599H99.4815V14.8803C99.4815 12.1429 98.5202 10.91 96.4725 10.91C94.2783 10.91 92.3807 12.1429 92.3807 14.8803V22.1599H88.1709V7.11837H92.3807V7.30063C92.3807 8.62288 91.7195 10.1881 91.2371 11.4532L91.9304 11.7248C92.4128 10.4597 92.8309 8.68721 93.8852 7.87599C95.0895 6.94326 96.4403 6.67167 98.3058 6.67167V6.66809Z" fill="#E6E8F0"/>
<path d="M109.134 10.7278H106.125V7.11837H109.134V1.10034H113.347V7.11837H117.257V10.7278H113.347V16.6243C113.347 17.8894 113.919 18.2467 115.334 18.2467H117.11V22.1563H113.051C109.952 22.1563 109.141 19.1187 109.141 16.6207V10.7242L109.134 10.7278Z" fill="#E6E8F0"/>
<path d="M125.469 22.6102C122.432 22.6102 119.512 20.8341 119.512 17.4355V7.11841H123.722V14.7589C123.722 17.8858 125.166 18.9401 127.181 18.9401C129.375 18.9401 130.791 17.6464 130.791 14.7589V7.11841H135V22.1599H130.791V21.6489C130.819 20.7769 131.391 19.7834 131.691 18.9722L130.998 18.7006C130.698 19.5118 130.487 20.6876 129.854 21.2879C128.682 22.4315 127.567 22.6102 125.462 22.6102H125.469Z" fill="#E6E8F0"/>
</svg>
