<svg width="22" height="22" viewBox="0 0 22 22" fill="none" xmlns="http://www.w3.org/2000/svg">
<path fill-rule="evenodd" clip-rule="evenodd" d="M1.38097 3.81887C0.772949 5.01218 0.772949 6.57431 0.772949 9.69857V12.3019C0.772949 15.4261 0.772949 16.9883 1.38097 18.1815C1.9158 19.2312 2.7692 20.0846 3.81887 20.6194C5.01218 21.2275 6.57431 21.2275 9.69857 21.2275H12.3019C15.4261 21.2275 16.9883 21.2275 18.1815 20.6194C19.2312 20.0846 20.0846 19.2312 20.6194 18.1815C21.2275 16.9883 21.2275 15.4261 21.2275 12.3019V9.69857C21.2275 6.57431 21.2275 5.01218 20.6194 3.81887C20.0846 2.7692 19.2312 1.9158 18.1815 1.38097C16.9883 0.772949 15.4261 0.772949 12.3019 0.772949H9.69857C6.57431 0.772949 5.01218 0.772949 3.81887 1.38097C2.7692 1.9158 1.9158 2.7692 1.38097 3.81887ZM12.3019 2.63245H9.69857C8.10575 2.63245 7.02297 2.6339 6.18604 2.70228C5.3708 2.76889 4.9539 2.88961 4.66307 3.0378C3.96329 3.39436 3.39436 3.96329 3.0378 4.66307C2.88961 4.9539 2.76889 5.3708 2.70228 6.18604C2.6339 7.02297 2.63245 8.10575 2.63245 9.69857V12.3019C2.63245 13.8947 2.6339 14.9774 2.70228 15.8144C2.76889 16.6297 2.88961 17.0466 3.0378 17.3374C3.39436 18.0371 3.96329 18.6061 4.66307 18.9626C4.9539 19.1108 5.3708 19.2316 6.18604 19.2982C7.02297 19.3665 8.10575 19.368 9.69857 19.368H12.3019C13.8947 19.368 14.9774 19.3665 15.8144 19.2982C16.6297 19.2316 17.0466 19.1108 17.3374 18.9626C18.0371 18.6061 18.6061 18.0371 18.9626 17.3374C19.1108 17.0466 19.2316 16.6297 19.2982 15.8144C19.3665 14.9774 19.368 13.8947 19.368 12.3019V9.69857C19.368 8.10575 19.3665 7.02297 19.2982 6.18604C19.2316 5.3708 19.1108 4.9539 18.9626 4.66307C18.6061 3.96329 18.0371 3.39436 17.3374 3.0378C17.0466 2.88961 16.6297 2.76889 15.8144 2.70228C14.9774 2.6339 13.8947 2.63245 12.3019 2.63245Z" fill="#25AFE0"/>
<path fill-rule="evenodd" clip-rule="evenodd" d="M11.0002 16.5581C14.0697 16.5581 16.5581 14.0697 16.5581 11.0002C16.5581 7.93072 14.0697 5.44238 11.0002 5.44238C7.93072 5.44238 5.44238 7.93072 5.44238 11.0002C5.44238 14.0697 7.93072 16.5581 11.0002 16.5581ZM11.0002 14.7055C13.0465 14.7055 14.7055 13.0465 14.7055 11.0002C14.7055 8.95389 13.0465 7.295 11.0002 7.295C8.95389 7.295 7.295 8.95389 7.295 11.0002C7.295 13.0465 8.95389 14.7055 11.0002 14.7055Z" fill="#25AFE0"/>
<path d="M16.28 4.88672C15.8195 4.88672 15.4463 5.25997 15.4463 5.7204C15.4463 6.18082 15.8195 6.55407 16.28 6.55407C16.7404 6.55407 17.1136 6.18082 17.1136 5.7204C17.1136 5.25997 16.7404 4.88672 16.28 4.88672Z" fill="#25AFE0"/>
</svg>
