<svg width="112" height="110" viewBox="0 0 112 110" fill="none" xmlns="http://www.w3.org/2000/svg">
<path d="M85.3404 28.5569C84.8258 22.8712 82.36 17.3857 77.9823 13.4654C72.7719 8.7982 66.593 6.12868 59.7817 4.81C52.9488 3.48775 45.9874 4.49909 39.7513 7.55457C33.015 10.8495 26.4859 16.1421 23.9951 23.4537C21.1362 31.8554 24.8992 41.1255 29.4306 48.1977C33.0722 53.8834 37.5535 58.7686 43.3107 62.3923C60.9181 73.4777 78.0394 54.9269 83.8716 39.4887C85.1867 36.008 85.6728 32.2378 85.3404 28.5533V28.5569ZM80.8269 45.3924C80.8412 45.3459 80.8555 45.2959 80.8698 45.2459C80.8591 45.2959 80.8448 45.3424 80.8269 45.3924Z" fill="#1F55A5"/>
<path d="M79.9586 31.4445C79.469 25.4693 77.5142 19.6657 74.1443 15.1415C69.8845 9.4272 63.3661 5.48903 56.0544 6.35743C43.0177 7.90482 27.9691 18.6115 25.9929 32.3236C24.9065 39.8711 30.9924 47.726 36.2492 52.479C42.3602 58.0039 51.0656 63.0141 59.696 61.8098C74.5052 59.7442 81.0771 45.1494 79.9514 31.448L79.9586 31.4445Z" fill="#25AFE0"/>
<path d="M54.3571 57.9859C67.2037 57.9859 77.618 47.5717 77.618 34.725C77.618 21.8784 67.2037 11.4641 54.3571 11.4641C41.5105 11.4641 31.0962 21.8784 31.0962 34.725C31.0962 47.5717 41.5105 57.9859 54.3571 57.9859Z" fill="#92DDEF"/>
<g filter="url(#filter0_d_2001_29)">
<path d="M68.0081 32.5665C67.9331 33.6958 67.7651 34.8537 67.5186 36.0258C67.3792 36.9443 67.1826 37.8591 66.9003 38.7347C66.8574 38.8669 66.8145 38.9955 66.7681 39.1242C66.7288 39.2278 66.693 39.335 66.6502 39.4387C66.6216 39.5173 66.5858 39.5995 66.5537 39.6817C66.4179 40.014 66.2642 40.3392 66.0891 40.6501C66.014 40.7788 65.939 40.9039 65.8604 41.0325C63.9342 44.0737 60.5392 45.6175 55.7648 45.6175V46.5252C59.996 46.5252 62.762 45.3209 64.5667 43.8414C62.0687 47.5687 58.3021 49.763 54.4033 49.6379C49.468 49.7987 44.7401 46.2358 42.5351 40.5536C39.3617 31.037 38.9186 20.4876 54.4033 20.484C63.1801 20.484 66.836 23.8754 67.783 28.5462C68.0367 29.8077 68.0975 31.1621 68.0046 32.5665H68.0081Z" fill="white"/>
<path d="M54.7069 37.8449C53.6134 37.8449 52.5199 37.8663 51.4263 37.8377C50.6437 37.8163 49.8611 37.7269 49.082 37.6555C48.21 37.5768 47.3524 37.4053 46.5233 37.1158C45.8907 36.8943 45.2939 36.6048 44.8079 36.1367C44.1682 35.5256 43.8216 34.7715 43.743 33.8888C43.7001 33.41 43.7072 32.9347 43.8109 32.4665C43.961 31.7839 44.2361 31.1586 44.6757 30.6082C45.6477 29.3825 46.9342 28.6248 48.378 28.0852C49.4251 27.6921 50.5115 27.4563 51.6157 27.2919C52.8808 27.106 54.153 27.0846 55.4288 27.131C56.5902 27.1739 57.741 27.3347 58.8738 27.6135C60.289 27.9601 61.6362 28.4783 62.8298 29.3431C63.6339 29.9292 64.2915 30.6368 64.7024 31.5517C65.0205 32.2628 65.1456 33.0097 65.0705 33.7852C65.0419 34.0961 65.0062 34.4106 64.9204 34.7072C64.6024 35.7829 63.9055 36.5333 62.8799 36.9836C62.0258 37.3588 61.1324 37.5697 60.2104 37.6519C59.2169 37.7377 58.2234 37.8056 57.2264 37.8449C56.3937 37.877 55.5575 37.852 54.7248 37.852V37.8449H54.7069ZM57.7302 32.4201C57.7302 33.2277 57.9125 33.7852 58.327 34.3463C58.7594 34.9288 59.5028 35.0038 60.0388 34.5178C60.3426 34.2426 60.5177 33.8888 60.6356 33.5029C60.7643 33.0883 60.7929 32.6631 60.7678 32.2307C60.7285 31.5338 60.5034 30.9263 59.9781 30.4474C59.7601 30.2473 59.492 30.1115 59.199 30.1401C58.7952 30.1794 58.4879 30.3974 58.2448 30.7333C57.8625 31.2658 57.7445 31.8697 57.7231 32.4165L57.7302 32.4201ZM51.0153 32.4987C51.0153 31.8733 50.8545 31.2944 50.5222 30.7619C50.2113 30.2616 49.5823 30.0186 49.0891 30.2366C48.7425 30.3902 48.4923 30.6618 48.3172 30.9942C47.942 31.7018 47.8884 32.4558 48.0421 33.2348C48.1457 33.7566 48.3637 34.2105 48.7818 34.5535C49.0963 34.8108 49.4394 34.9252 49.8468 34.7751C50.1041 34.6822 50.297 34.5142 50.4543 34.3034C50.851 33.7673 51.0118 33.1562 51.0153 32.4987Z" fill="url(#paint0_linear_2001_29)"/>
<path d="M57.7339 32.4201C57.7518 31.8697 57.8697 31.2693 58.2556 30.7369C58.4951 30.401 58.806 30.183 59.2098 30.1436C59.5028 30.1151 59.7673 30.2473 59.9889 30.451C60.5106 30.9299 60.7393 31.5374 60.7786 32.2342C60.8037 32.6666 60.7751 33.0919 60.6464 33.5065C60.5285 33.8924 60.3534 34.2462 60.0496 34.5214C59.5136 35.0074 58.7702 34.9323 58.3378 34.3498C57.9197 33.7888 57.741 33.2313 57.741 32.4236L57.7339 32.4201Z" fill="white"/>
<path d="M51.019 32.4987C51.0154 33.1563 50.851 33.7674 50.4579 34.3034C50.3007 34.5143 50.1077 34.6822 49.8504 34.7752C49.443 34.9217 49.0964 34.8073 48.7854 34.5536C48.3673 34.2141 48.1493 33.7602 48.0457 33.2349C47.892 32.4559 47.9456 31.7018 48.3209 30.9942C48.496 30.6655 48.7461 30.3903 49.0928 30.2366C49.5859 30.0186 50.2149 30.2616 50.5258 30.7619C50.8546 31.2944 51.0226 31.8733 51.019 32.4987Z" fill="white"/>
<path d="M67.7868 28.5462C68.0405 29.8077 68.1013 31.1621 68.0083 32.5666C67.9333 33.6958 67.7653 34.8537 67.5188 36.0259C67.3794 36.9443 67.1828 37.8591 66.9005 38.7347C66.8576 38.8669 66.8147 38.9956 66.7683 39.1242C66.729 39.2279 66.6932 39.3351 66.6504 39.4387C66.6218 39.5173 66.586 39.5995 66.5539 39.6817C66.4181 40.0141 66.2644 40.3393 66.0893 40.6502C66.0142 40.7788 65.9392 40.9039 65.8606 41.0326C64.0416 43.9058 60.9111 45.4389 56.5476 45.6033C56.369 45.1637 55.9365 44.8528 55.4327 44.8528H53.3742C52.7095 44.8528 52.1699 45.3924 52.1699 46.0571C52.1699 46.7218 52.7095 47.2614 53.3742 47.2614H55.4327C55.9365 47.2614 56.369 46.9505 56.5476 46.5074C60.3393 46.368 62.873 45.2244 64.5633 43.8379C65.4711 43.0946 66.1393 42.2798 66.6218 41.515C67.9726 39.378 68.4122 36.98 68.4479 36.3046C69.7201 35.9544 70.5564 35.0538 70.9888 33.7852C71.1281 33.3706 71.1996 32.9347 71.1996 32.4987C71.1996 30.4867 69.713 28.825 67.7796 28.5391L67.7868 28.5462Z" fill="#002C44"/>
</g>
<defs>
<filter id="filter0_d_2001_29" x="0.759277" y="0.484009" width="110.44" height="109.159" filterUnits="userSpaceOnUse" color-interpolation-filters="sRGB">
<feFlood flood-opacity="0" result="BackgroundImageFix"/>
<feColorMatrix in="SourceAlpha" type="matrix" values="0 0 0 0 0 0 0 0 0 0 0 0 0 0 0 0 0 0 127 0" result="hardAlpha"/>
<feOffset dy="20"/>
<feGaussianBlur stdDeviation="20"/>
<feColorMatrix type="matrix" values="0 0 0 0 0 0 0 0 0 0.509804 0 0 0 0 0.666667 0 0 0 0.4 0"/>
<feBlend mode="normal" in2="BackgroundImageFix" result="effect1_dropShadow_2001_29"/>
<feBlend mode="normal" in="SourceGraphic" in2="effect1_dropShadow_2001_29" result="shape"/>
</filter>
<linearGradient id="paint0_linear_2001_29" x1="43.7144" y1="32.4844" x2="65.0777" y2="32.4844" gradientUnits="userSpaceOnUse">
<stop stop-color="#1F55A5"/>
<stop offset="1" stop-color="#25AFE0"/>
</linearGradient>
</defs>
</svg>
