<svg width="106" height="104" viewBox="0 0 106 104" fill="none" xmlns="http://www.w3.org/2000/svg">
<path d="M76.6689 26.7632C76.2507 22.142 74.2465 17.6834 70.6884 14.4971C66.4535 10.7037 61.4315 8.53399 55.8953 7.4622C50.3418 6.3875 44.6836 7.2095 39.6151 9.69292C34.14 12.371 28.8333 16.6726 26.8088 22.6154C24.4851 29.4441 27.5437 36.9786 31.2267 42.7268C34.1865 47.348 37.8288 51.3186 42.5081 54.2638C56.819 63.2738 70.7349 48.1961 75.4751 35.6483C76.544 32.8192 76.9391 29.7549 76.6689 26.7603V26.7632ZM73.0004 40.4467C73.0121 40.4089 73.0237 40.3683 73.0353 40.3276C73.0266 40.3683 73.015 40.406 73.0004 40.4467Z" fill="#1F55A5"/>
<path d="M72.2946 29.11C71.8967 24.2536 70.3079 19.5365 67.5688 15.8593C64.1066 11.2149 58.8086 8.01404 52.8658 8.71985C42.2699 9.97754 30.0387 18.6797 28.4324 29.8246C27.5494 35.9591 32.4959 42.3433 36.7686 46.2064C41.7354 50.6969 48.811 54.7692 55.8256 53.7903C67.8622 52.1115 73.2037 40.2491 72.2888 29.113L72.2946 29.11Z" fill="#25AFE0"/>
<path d="M51.486 50.6824C61.9275 50.6824 70.392 42.2179 70.392 31.7764C70.392 21.335 61.9275 12.8705 51.486 12.8705C41.0446 12.8705 32.5801 21.335 32.5801 31.7764C32.5801 42.2179 41.0446 50.6824 51.486 50.6824Z" fill="#92DDEF"/>
<g filter="url(#filter0_d_2003_524)">
<path d="M62.5819 30.0221C62.5209 30.9399 62.3843 31.881 62.1839 32.8337C62.0706 33.5802 61.9109 34.3238 61.6814 35.0354C61.6466 35.1429 61.6117 35.2474 61.574 35.352C61.542 35.4362 61.513 35.5234 61.4781 35.6076C61.4549 35.6715 61.4258 35.7383 61.3997 35.8051C61.2893 36.0752 61.1644 36.3395 61.0221 36.5922C60.9611 36.6968 60.9001 36.7985 60.8362 36.903C59.2706 39.3748 56.5113 40.6296 52.6307 40.6296V41.3674C56.0698 41.3674 58.3179 40.3885 59.7847 39.186C57.7544 42.2155 54.693 43.9989 51.5241 43.8973C47.5129 44.028 43.6701 41.1321 41.878 36.5138C39.2987 28.7789 38.9385 20.2046 51.5241 20.2017C58.6578 20.2017 61.6291 22.9581 62.3989 26.7544C62.6051 27.7797 62.6545 28.8806 62.5789 30.0221H62.5819Z" fill="white"/>
<path d="M51.7712 34.3121C50.8824 34.3121 49.9936 34.3296 49.1048 34.3063C48.4687 34.2889 47.8326 34.2163 47.1994 34.1582C46.4907 34.0943 45.7936 33.9549 45.1197 33.7196C44.6056 33.5395 44.1205 33.3042 43.7255 32.9237C43.2056 32.4271 42.9238 31.8142 42.8599 31.0968C42.8251 30.7075 42.8309 30.3212 42.9151 29.9407C43.0371 29.386 43.2608 28.8776 43.618 28.4303C44.4081 27.4341 45.4537 26.8183 46.6272 26.3797C47.4782 26.0602 48.3612 25.8685 49.2587 25.7349C50.2869 25.5838 51.321 25.5664 52.3579 25.6042C53.3019 25.639 54.2372 25.7697 55.1579 25.9963C56.3082 26.278 57.4032 26.6992 58.3733 27.4021C59.0268 27.8785 59.5613 28.4536 59.8953 29.1972C60.1538 29.7752 60.2555 30.3822 60.1945 31.0125C60.1713 31.2652 60.1422 31.5208 60.0725 31.7619C59.814 32.6362 59.2476 33.2461 58.414 33.6121C57.7198 33.9171 56.9936 34.0885 56.2443 34.1553C55.4368 34.225 54.6293 34.2802 53.8189 34.3121C53.1422 34.3383 52.4625 34.3179 51.7857 34.3179V34.3121H51.7712ZM54.2285 29.903C54.2285 30.5594 54.3766 31.0125 54.7135 31.4685C55.065 31.942 55.6691 32.003 56.1048 31.608C56.3517 31.3843 56.494 31.0968 56.5899 30.7831C56.6945 30.4461 56.7177 30.1005 56.6974 29.749C56.6654 29.1826 56.4824 28.6888 56.0555 28.2996C55.8783 28.137 55.6604 28.0266 55.4223 28.0498C55.094 28.0818 54.8442 28.259 54.6467 28.532C54.3359 28.9648 54.2401 29.4557 54.2227 29.9001L54.2285 29.903ZM48.7708 29.9669C48.7708 29.4586 48.64 28.988 48.3699 28.5552C48.1172 28.1486 47.606 27.9511 47.2052 28.1283C46.9234 28.2532 46.7201 28.4739 46.5778 28.744C46.2728 29.3191 46.2292 29.932 46.3541 30.5652C46.4384 30.9893 46.6156 31.3582 46.9554 31.637C47.211 31.8461 47.4898 31.9391 47.821 31.8171C48.0301 31.7416 48.1869 31.6051 48.3147 31.4337C48.6371 30.998 48.7678 30.5013 48.7708 29.9669Z" fill="url(#paint0_linear_2003_524)"/>
<path d="M54.2314 29.9029C54.246 29.4556 54.3418 28.9677 54.6555 28.5349C54.8501 28.2618 55.1028 28.0847 55.431 28.0527C55.6692 28.0295 55.8842 28.1369 56.0642 28.3025C56.4883 28.6917 56.6742 29.1855 56.7062 29.7519C56.7265 30.1033 56.7032 30.449 56.5987 30.7859C56.5028 31.0996 56.3605 31.3872 56.1136 31.6108C55.6779 32.0059 55.0738 31.9449 54.7223 31.4714C54.3825 31.0154 54.2373 30.5623 54.2373 29.9058L54.2314 29.9029Z" fill="white"/>
<path d="M48.7739 29.9668C48.771 30.5013 48.6374 30.9979 48.3179 31.4336C48.1901 31.605 48.0333 31.7415 47.8241 31.817C47.493 31.9361 47.2113 31.8432 46.9586 31.6369C46.6187 31.361 46.4415 30.9921 46.3573 30.5652C46.2324 29.932 46.276 29.3191 46.581 28.744C46.7233 28.4768 46.9266 28.2531 47.2084 28.1282C47.6092 27.951 48.1204 28.1485 48.3731 28.5552C48.6403 28.988 48.7768 29.4585 48.7739 29.9668Z" fill="white"/>
<path d="M62.402 26.7543C62.6083 27.7797 62.6576 28.8805 62.5821 30.022C62.5211 30.9399 62.3846 31.8809 62.1842 32.8336C62.0709 33.5801 61.9111 34.3237 61.6817 35.0353C61.6468 35.1428 61.612 35.2474 61.5742 35.3519C61.5423 35.4362 61.5132 35.5233 61.4784 35.6075C61.4551 35.6714 61.4261 35.7382 61.3999 35.805C61.2896 36.0752 61.1647 36.3395 61.0223 36.5922C60.9614 36.6967 60.9004 36.7984 60.8365 36.903C59.358 39.2383 56.8136 40.4843 53.2671 40.6179C53.1219 40.2607 52.7704 40.008 52.3609 40.008H50.6878C50.1476 40.008 49.709 40.4466 49.709 40.9868C49.709 41.5271 50.1476 41.9657 50.6878 41.9657H52.3609C52.7704 41.9657 53.1219 41.713 53.2671 41.3528C56.3489 41.2395 58.4082 40.3101 59.7821 39.1831C60.5199 38.5789 61.063 37.9167 61.4551 37.2951C62.5531 35.5581 62.9103 33.6092 62.9394 33.0602C63.9734 32.7756 64.6531 32.0436 65.0045 31.0125C65.1178 30.6755 65.1759 30.3212 65.1759 29.9668C65.1759 28.3315 63.9676 26.9809 62.3962 26.7485L62.402 26.7543Z" fill="#002C44"/>
</g>
<defs>
<filter id="filter0_d_2003_524" x="0.43457" y="0.20166" width="104.741" height="103.7" filterUnits="userSpaceOnUse" color-interpolation-filters="sRGB">
<feFlood flood-opacity="0" result="BackgroundImageFix"/>
<feColorMatrix in="SourceAlpha" type="matrix" values="0 0 0 0 0 0 0 0 0 0 0 0 0 0 0 0 0 0 127 0" result="hardAlpha"/>
<feOffset dy="20"/>
<feGaussianBlur stdDeviation="20"/>
<feColorMatrix type="matrix" values="0 0 0 0 0 0 0 0 0 0.509804 0 0 0 0 0.666667 0 0 0 0.4 0"/>
<feBlend mode="normal" in2="BackgroundImageFix" result="effect1_dropShadow_2003_524"/>
<feBlend mode="normal" in="SourceGraphic" in2="effect1_dropShadow_2003_524" result="shape"/>
</filter>
<linearGradient id="paint0_linear_2003_524" x1="42.8367" y1="29.9553" x2="60.2003" y2="29.9553" gradientUnits="userSpaceOnUse">
<stop stop-color="#1F55A5"/>
<stop offset="1" stop-color="#25AFE0"/>
</linearGradient>
</defs>
</svg>
