<svg width="24" height="24" viewBox="0 0 24 24" fill="none" xmlns="http://www.w3.org/2000/svg">
<path d="M11.9997 16.4213C11.8961 16.4215 11.7935 16.4011 11.6978 16.3614C11.6021 16.3218 11.5151 16.2636 11.442 16.1902L6.70517 11.4533C6.56132 11.3045 6.48169 11.1051 6.48343 10.8981C6.48517 10.6911 6.56814 10.493 6.71447 10.3466C6.86081 10.2002 7.05879 10.1171 7.26579 10.1153C7.47279 10.1134 7.67223 10.1929 7.82117 10.3367L11.9997 14.5146L16.1782 10.3373C16.3272 10.1936 16.5266 10.114 16.7336 10.1159C16.9406 10.1178 17.1386 10.2008 17.2849 10.3473C17.4313 10.4937 17.5142 10.6917 17.516 10.8987C17.5177 11.1057 17.4381 11.3051 17.2942 11.454L12.5574 16.1908C12.4842 16.2641 12.3972 16.3221 12.3015 16.3617C12.2058 16.4013 12.1033 16.4215 11.9997 16.4213V16.4213Z" fill="black"/>
</svg>
