<svg width="111" height="24" viewBox="0 0 111 24" fill="none" xmlns="http://www.w3.org/2000/svg">
<path d="M15.3305 5.22803C17.9214 5.22803 19.9023 6.64547 19.9023 9.43387V17.8194H16.4807V11.438C16.4807 9.04175 15.772 7.96705 14.3052 7.96705C12.7164 7.96705 12.0309 9.04175 12.0309 11.438V17.8194H8.6093V11.438C8.6093 9.04175 7.90058 7.96705 6.40763 7.96705C4.76944 7.96705 3.88935 9.04175 3.88935 11.438V17.8194H0.464844V5.594H3.88935V5.74214C3.88935 6.81684 3.40138 8.13842 3.08187 9.16374L3.6686 9.33511C3.9852 8.30689 4.1101 6.7936 4.89143 6.05874C5.52754 5.42264 6.30887 5.22803 7.50847 5.22803C8.58316 5.22803 9.48939 5.42264 10.1255 5.96289C10.9562 6.67161 10.567 8.1878 10.3956 9.23926L11.0056 9.33802C11.177 8.28656 11.4471 6.96497 12.301 6.33177C13.0591 5.74504 14.0844 5.23093 15.3334 5.23093L15.3305 5.22803Z" fill="#25AFE0"/>
<path d="M29.1211 11.6094C29.5858 12.6376 29.609 14.0551 29.609 15.1559H30.219C30.219 14.0551 30.219 12.6376 30.707 11.6094L33.5186 5.59399H37.7971L31.7091 17.7933C31.3431 18.5514 31.0003 19.1613 30.6082 19.9456C29.4841 22.3186 28.1887 23.9307 26.1816 23.9307H22.4405V20.5061H24.4941C25.9609 20.5061 26.5708 19.748 27.2563 18.502L27.965 17.2065L21.999 5.59399H26.2775L29.1124 11.6094H29.1211Z" fill="#25AFE0"/>
<path d="M43.5866 6.54959C43.5866 7.28155 43.1451 8.1384 42.9011 8.82388L43.4646 9.01849C43.7086 8.33301 43.8306 7.33093 44.3447 6.81682C45.248 5.88735 46.497 5.228 48.1091 5.228C51.6062 5.228 54.1245 8.2604 54.2203 11.7314C54.3423 15.3505 51.7514 18.2115 48.1091 18.2115C46.4709 18.2115 45.1987 17.648 44.3186 16.6953C43.8045 16.1812 43.7318 15.1559 43.4879 14.4704L42.9011 14.665C43.1451 15.3505 43.5866 16.2044 43.5866 16.9393V17.8194L40.1621 17.7962V0.069458L43.5866 0.0926952V6.54669V6.54959ZM50.7987 11.8069C50.7987 9.94796 49.6253 8.40853 47.5717 8.40853C45.5182 8.40853 44.3186 9.94796 44.3186 11.8069C44.3186 13.6658 45.5153 15.0339 47.5717 15.0339C49.6282 15.0339 50.7987 13.6658 50.7987 11.8069Z" fill="#001A6B"/>
<path d="M61.6528 18.2116C58.0598 18.2116 55.4922 15.2779 55.4922 11.6356C55.4922 7.99322 58.0598 5.23096 61.6528 5.23096C63.2678 5.23096 64.5138 5.79445 65.3939 6.74715C65.908 7.2845 65.9807 8.28658 66.2014 8.9953L66.7881 8.80069C66.5674 8.11521 66.1288 7.26126 66.1288 6.5264V5.59693H69.5504V17.8223H66.1288V16.8203C66.1288 16.0854 66.5703 15.2053 66.7649 14.5227L66.2014 14.3281C65.9807 15.0368 65.908 16.0389 65.4201 16.6024C64.54 17.6045 63.2939 18.2174 61.6557 18.2174L61.6528 18.2116ZM61.8968 15.0339C63.6076 15.0339 64.9031 13.4684 64.9292 11.6356C64.9292 9.77663 63.8777 8.40857 61.8968 8.40857C60.186 8.40857 58.9138 9.77663 58.9138 11.6356C58.9138 13.4945 60.186 15.0339 61.8968 15.0339Z" fill="#001A6B"/>
<path d="M80.2335 5.22803C82.7024 5.22803 84.6107 6.64547 84.6107 9.43387V17.8194H81.1891V11.9028C81.1891 9.67785 80.4078 8.67577 78.7435 8.67577C76.96 8.67577 75.4177 9.67785 75.4177 11.9028V17.8194H71.9961V5.594H75.4177V5.74214C75.4177 6.81684 74.8804 8.08905 74.4882 9.11727L75.0517 9.33802C75.4438 8.3098 75.7837 6.86912 76.6405 6.20978C77.6194 5.45168 78.7173 5.23093 80.2335 5.23093V5.22803Z" fill="#001A6B"/>
<path d="M89.0345 8.5276H86.5889V5.59396H89.0345V0.702637H92.459V5.59396H95.6367V8.5276H92.459V13.3202C92.459 14.3484 92.9238 14.6388 94.074 14.6388H95.5176V17.8165H92.218C89.6997 17.8165 89.0403 15.3476 89.0403 13.3173V8.52469L89.0345 8.5276Z" fill="#001A6B"/>
<path d="M102.312 18.1854C99.8428 18.1854 97.4697 16.7418 97.4697 13.9795V5.59399H100.891V11.804C100.891 14.3455 102.065 15.2024 103.703 15.2024C105.486 15.2024 106.637 14.1509 106.637 11.804V5.59399H110.058V17.8194H106.637V17.404C106.66 16.6953 107.125 15.8879 107.369 15.2285L106.805 15.0078C106.561 15.6671 106.39 16.6227 105.876 17.1107C104.923 18.0401 104.017 18.1854 102.306 18.1854H102.312Z" fill="#001A6B"/>
</svg>
