<svg width="24" height="16" viewBox="0 0 24 16" fill="none" xmlns="http://www.w3.org/2000/svg">
<path fill-rule="evenodd" clip-rule="evenodd" d="M9.71424 10.9389V4.56202C11.978 5.62725 13.7313 6.65629 15.805 7.76572C14.0947 8.71423 11.978 9.77848 9.71424 10.9389ZM22.3304 1.3905C21.9399 0.876016 21.2744 0.475533 20.5658 0.342946C18.4831 -0.0525546 5.48998 -0.0536796 3.40841 0.342946C2.84019 0.449465 2.33421 0.706939 1.89956 1.10697C0.0681408 2.80681 0.642021 11.9225 1.08346 13.3991C1.2691 14.0383 1.50907 14.4992 1.81129 14.8018C2.20066 15.2018 2.73378 15.4772 3.34614 15.6008C5.06098 15.9555 13.8955 16.1538 20.5296 15.654C21.1408 15.5475 21.6818 15.2632 22.1086 14.8462C23.8019 13.1531 23.6865 3.5255 22.3304 1.3905Z" fill="#25AFE0"/>
</svg>
