<svg width="24" height="24" viewBox="0 0 24 24" fill="none" xmlns="http://www.w3.org/2000/svg">
<path d="M13.5 2C13.5 2 15.8335 2.21213 18.8033 5.18198C21.7731 8.15183 21.9853 10.4853 21.9853 10.4853" stroke="#1A7C9F" stroke-width="1.5" stroke-linecap="round"/>
<path d="M14.207 5.53564C14.207 5.53564 15.197 5.81849 16.6819 7.30341C18.1668 8.78834 18.4497 9.77829 18.4497 9.77829" stroke="#1A7C9F" stroke-width="1.5" stroke-linecap="round"/>
<path d="M3.75187 6.92576C3.72967 6.51214 3.37637 6.19483 2.96275 6.21703C2.54913 6.23923 2.23183 6.59254 2.25403 7.00615L3.75187 6.92576ZM4.71772 3.09215C4.43246 3.39248 4.44467 3.86719 4.745 4.15246C5.04533 4.43772 5.52004 4.42551 5.80531 4.12518L4.71772 3.09215ZM10.6641 19.8123C11.0148 20.0327 11.4778 19.9271 11.6982 19.5764C11.9186 19.2257 11.8129 18.7627 11.4622 18.5423L10.6641 19.8123ZM15.113 20.0584C14.7076 19.9735 14.3101 20.2334 14.2252 20.6388C14.1403 21.0442 14.4001 21.4417 14.8056 21.5266L15.113 20.0584ZM15.6446 15.5437L16.1 15.0642L15.0124 14.0312L14.557 14.5107L15.6446 15.5437ZM17.5987 14.8623L19.5092 15.962L20.2575 14.662L18.347 13.5623L17.5987 14.8623ZM19.8779 18.2419L18.4574 19.7375L19.545 20.7705L20.9655 19.275L19.8779 18.2419ZM8.35922 15.9587C4.48309 11.8778 3.83291 8.43558 3.75187 6.92576L2.25403 7.00615C2.35328 8.85538 3.13846 12.6403 7.27163 16.9917L8.35922 15.9587ZM9.73456 9.32161L10.0214 9.01965L8.93379 7.98662L8.64697 8.28858L9.73456 9.32161ZM10.2467 5.26014L8.98571 3.47665L7.76092 4.34262L9.02191 6.1261L10.2467 5.26014ZM9.19077 8.80509C8.64697 8.28858 8.64628 8.28931 8.64558 8.29004C8.64535 8.2903 8.64465 8.29104 8.64417 8.29154C8.64322 8.29256 8.64225 8.29359 8.64127 8.29465C8.6393 8.29677 8.63726 8.29898 8.63517 8.30129C8.63097 8.3059 8.62652 8.31089 8.62184 8.31627C8.61249 8.32703 8.60221 8.33933 8.59122 8.35322C8.56924 8.381 8.54437 8.41513 8.51828 8.4559C8.46597 8.53766 8.40923 8.64533 8.36119 8.78035C8.26348 9.05492 8.21024 9.41852 8.27677 9.87259C8.40748 10.7647 8.99204 11.9644 10.5194 13.5724L11.607 12.5394C10.1793 11.0363 9.82767 10.1106 9.76092 9.65513C9.72873 9.43538 9.76144 9.31959 9.77438 9.28323C9.78165 9.26279 9.78641 9.25711 9.78176 9.26439C9.7795 9.26791 9.775 9.27453 9.76744 9.28409C9.76365 9.28887 9.7591 9.29439 9.75366 9.30065C9.75094 9.30377 9.748 9.30708 9.74482 9.31058C9.74323 9.31233 9.74158 9.31412 9.73987 9.31596C9.73902 9.31688 9.73815 9.31781 9.73726 9.31875C9.73682 9.31922 9.73614 9.31994 9.73592 9.32017C9.73524 9.32089 9.73456 9.32161 9.19077 8.80509ZM10.5194 13.5724C12.0422 15.1757 13.1924 15.806 14.0699 15.9485C14.5201 16.0216 14.8846 15.9632 15.1606 15.8544C15.2955 15.8012 15.4023 15.7387 15.4824 15.6819C15.5223 15.6535 15.5556 15.6266 15.5825 15.6031C15.5959 15.5913 15.6078 15.5803 15.6181 15.5703C15.6233 15.5654 15.628 15.5606 15.6324 15.5562C15.6346 15.554 15.6368 15.5518 15.6388 15.5497C15.6398 15.5487 15.6408 15.5477 15.6417 15.5467C15.6422 15.5462 15.6429 15.5454 15.6432 15.5452C15.6439 15.5444 15.6446 15.5437 15.1008 15.0272C14.557 14.5107 14.5577 14.51 14.5583 14.5093C14.5586 14.509 14.5592 14.5083 14.5597 14.5078C14.5606 14.5069 14.5615 14.506 14.5623 14.5051C14.5641 14.5033 14.5658 14.5015 14.5675 14.4998C14.5708 14.4965 14.574 14.4933 14.577 14.4904C14.5831 14.4846 14.5885 14.4796 14.5933 14.4754C14.6029 14.467 14.61 14.4616 14.6146 14.4584C14.6239 14.4517 14.623 14.454 14.6102 14.459C14.5909 14.4666 14.5001 14.4987 14.3103 14.4679C13.9078 14.4025 13.0391 14.0472 11.607 12.5394L10.5194 13.5724ZM8.98571 3.47665C7.97212 2.04307 5.9439 1.80121 4.71772 3.09215L5.80531 4.12518C6.32814 3.57473 7.24857 3.61797 7.76092 4.34262L8.98571 3.47665ZM18.4574 19.7375C18.1783 20.0313 17.8864 20.1887 17.6026 20.2167L17.75 21.7095C18.497 21.6357 19.1016 21.2373 19.545 20.7705L18.4574 19.7375ZM10.0214 9.01965C10.9889 8.00097 11.0574 6.4068 10.2467 5.26014L9.02191 6.1261C9.44406 6.72317 9.37932 7.51755 8.93379 7.98662L10.0214 9.01965ZM19.5092 15.962C20.3301 16.4345 20.4907 17.5968 19.8779 18.2419L20.9655 19.275C22.2705 17.9011 21.8904 15.6019 20.2575 14.662L19.5092 15.962ZM16.1 15.0642C16.4854 14.6584 17.086 14.5672 17.5987 14.8623L18.347 13.5623C17.2485 12.93 15.8862 13.1113 15.0124 14.0312L16.1 15.0642ZM11.4622 18.5423C10.4785 17.9241 9.43151 17.0876 8.35922 15.9587L7.27163 16.9917C8.42566 18.2067 9.56899 19.1241 10.6641 19.8123L11.4622 18.5423ZM17.6026 20.2167C17.0561 20.2707 16.1912 20.2842 15.113 20.0584L14.8056 21.5266C16.0541 21.788 17.0742 21.7762 17.75 21.7095L17.6026 20.2167Z" fill="#1A7C9F"/>
</svg>
