<svg width="20" height="20" viewBox="0 0 20 20" fill="none" xmlns="http://www.w3.org/2000/svg">
<path fill-rule="evenodd" clip-rule="evenodd" d="M9.99992 2.5C10.2209 2.5 10.4329 2.5878 10.5892 2.74408L16.4225 8.57742C16.7479 8.90283 16.7479 9.4305 16.4225 9.75592C16.0971 10.0813 15.5694 10.0813 15.244 9.75592L10.8333 5.34517V16.6667C10.8333 17.1269 10.4602 17.5 9.99992 17.5C9.53967 17.5 9.16658 17.1269 9.16658 16.6667V5.34517L4.75584 9.75592C4.4304 10.0813 3.90277 10.0813 3.57733 9.75592C3.25189 9.4305 3.25189 8.90283 3.57733 8.57742L9.41067 2.74408C9.56692 2.5878 9.77892 2.5 9.99992 2.5Z" fill="#25AFE0"/>
</svg>
