<svg width="20" height="20" viewBox="0 0 20 20" fill="none" xmlns="http://www.w3.org/2000/svg">
<path d="M19.6588 9.94015C19.6362 8.08811 19.0881 6.28112 18.0789 4.73201C17.0698 3.18289 15.6417 1.95617 13.9629 1.19631C12.284 0.436457 10.4243 0.175117 8.60283 0.443053C6.78135 0.711002 5.07387 1.49706 3.6815 2.7087C2.28913 3.92032 1.26986 5.50705 0.743727 7.28199C0.217605 9.05695 0.206521 10.9462 0.711803 12.7273C1.21708 14.5084 2.21767 16.107 3.59574 17.3351C4.97379 18.5632 6.67195 19.3695 8.49018 19.659V12.7708H6.07535V9.94015H8.49018V7.78986C8.43428 7.2899 8.48813 6.78365 8.64799 6.3069C8.80785 5.83014 9.06974 5.39449 9.41518 5.0307C9.76063 4.6669 10.1812 4.38383 10.6472 4.20147C11.1133 4.01909 11.6135 3.94186 12.1124 3.97525C12.8367 3.98522 13.5592 4.0502 14.2737 4.16962V6.59934H13.0663C12.8581 6.57291 12.6466 6.59391 12.4476 6.66076C12.2485 6.72761 12.0669 6.83861 11.9162 6.98556C11.7656 7.13251 11.6496 7.31166 11.5771 7.50971C11.5044 7.70786 11.477 7.91985 11.4967 8.13002V9.96445H14.1771L13.7425 12.7951H11.5087V19.5983C13.7906 19.2351 15.8676 18.0611 17.3629 16.2891C18.8582 14.5171 19.6727 12.2647 19.6588 9.94015Z" fill="#25AFE0"/>
</svg>
